<svg width="22" height="24" viewBox="0 0 22 24" fill="none" xmlns="http://www.w3.org/2000/svg">
<path d="M4.33325 5.99994V3.59993C4.33327 2.90498 4.55678 2.22489 4.9768 1.64176C5.39683 1.05862 5.99541 0.597355 6.7003 0.313651C7.40519 0.029947 8.18625 -0.0640731 8.9492 0.04294C9.71215 0.149953 10.4244 0.453425 10.9999 0.916724C11.5755 0.453425 12.2877 0.149953 13.0506 0.04294C13.8136 -0.0640731 14.5947 0.029947 15.2995 0.313651C16.0044 0.597355 16.603 1.05862 17.023 1.64176C17.4431 2.22489 17.6666 2.90498 17.6666 3.59993V5.99994H19.6666C20.197 5.99994 20.7057 6.18958 21.0808 6.52715C21.4559 6.86472 21.6666 7.32256 21.6666 7.79995V19.806C21.6666 20.9183 21.1756 21.9851 20.3017 22.7716C19.4278 23.5581 18.2425 24 17.0066 24H5.66659C4.2521 24 2.89554 23.4943 1.89535 22.5941C0.895155 21.6939 0.333252 20.473 0.333252 19.2V7.79995C0.333252 7.32256 0.543965 6.86472 0.919038 6.52715C1.29411 6.18958 1.80282 5.99994 2.33325 5.99994H4.33325ZM13.1799 22.2C12.636 21.4978 12.3451 20.662 12.3466 19.806V7.79995H2.33325V19.2C2.33325 19.594 2.41947 19.9841 2.58699 20.348C2.7545 20.712 3.00003 21.0427 3.30956 21.3213C3.61909 21.5999 3.98656 21.8209 4.39097 21.9716C4.79539 22.1224 5.22885 22.2 5.66659 22.2H13.1799ZM10.3333 5.99994V3.59993C10.3333 3.12254 10.1225 2.6647 9.74747 2.32714C9.37239 1.98957 8.86369 1.79993 8.33325 1.79993C7.80282 1.79993 7.29411 1.98957 6.91904 2.32714C6.54397 2.6647 6.33325 3.12254 6.33325 3.59993V5.99994H10.3333ZM12.3333 5.99994H15.6666V3.59993C15.6666 3.22941 15.5396 2.86791 15.3029 2.56477C15.0662 2.26162 14.7313 2.03161 14.3439 1.90613C13.9566 1.78064 13.5356 1.7658 13.1385 1.86363C12.7415 1.96145 12.3876 2.16718 12.1253 2.45273C12.2599 2.81273 12.3333 3.19913 12.3333 3.59993V5.99994ZM14.3466 19.806C14.3466 20.4409 14.6268 21.0498 15.1257 21.4988C15.6245 21.9478 16.3011 22.2 17.0066 22.2C17.7121 22.2 18.3886 21.9478 18.8875 21.4988C19.3863 21.0498 19.6666 20.4409 19.6666 19.806V7.79995H14.3466V19.806Z" fill="#8D8D8D"/>
</svg>
