<svg width="24" height="24" viewBox="0 0 24 24" fill="none" xmlns="http://www.w3.org/2000/svg">
<path d="M14.448 6.99126C14.448 5.48685 13.101 4.30455 11.5375 4.58626L11.5339 4.58691L11.5339 4.5869C11.0439 4.67319 10.5459 4.99656 10.1579 5.49968C9.77018 6.00248 9.55172 6.61035 9.55172 7.155V8.17601C9.55172 8.71833 9.77095 9.3234 10.1603 9.8262C10.5497 10.329 11.0497 10.6548 11.539 10.745C13.1018 11.0257 14.448 9.84367 14.448 8.33975V6.99126ZM11.2119 2.76905C13.9243 2.2814 16.2942 4.35444 16.2942 6.99126V8.33975C16.2942 10.9771 13.9233 13.0505 11.2101 12.5616L11.2072 12.5611C10.175 12.3717 9.30303 11.7343 8.7007 10.9566C8.09798 10.1783 7.70557 9.18445 7.70557 8.17601V7.155C7.70557 6.14889 8.09393 5.15301 8.69591 4.37234C9.2973 3.59244 10.1712 2.95288 11.2119 2.76905Z" fill="#8D8D8D"/>
<path d="M12 1.84615C6.39219 1.84615 1.84615 6.39219 1.84615 12C1.84615 17.6078 6.39219 22.1538 12 22.1538C17.6078 22.1538 22.1538 17.6078 22.1538 12C22.1538 6.39219 17.6078 1.84615 12 1.84615ZM0 12C0 5.37258 5.37258 0 12 0C18.6274 0 24 5.37258 24 12C24 18.6274 18.6274 24 12 24C5.37258 24 0 18.6274 0 12Z" fill="#8D8D8D"/>
<path d="M11.9998 16.294C8.95252 16.294 6.3717 18.0453 5.29173 20.4752C5.08468 20.9411 4.53917 21.1509 4.07331 20.9438C3.60745 20.7368 3.39764 20.1913 3.60469 19.7254C4.99054 16.6073 8.24678 14.4479 11.9998 14.4479C15.7528 14.4479 19.009 16.6073 20.3949 19.7254C20.6019 20.1913 20.3921 20.7368 19.9263 20.9438C19.4604 21.1509 18.9149 20.9411 18.7078 20.4752C17.6279 18.0453 15.047 16.294 11.9998 16.294Z" fill="#8D8D8D"/>
</svg>
